<?xml version="1.0" encoding="UTF-8" standalone="no"?>
<svg
   xmlns:dc="http://purl.org/dc/elements/1.1/"
   xmlns:cc="http://creativecommons.org/ns#"
   xmlns:rdf="http://www.w3.org/1999/02/22-rdf-syntax-ns#"
   xmlns:svg="http://www.w3.org/2000/svg"
   xmlns="http://www.w3.org/2000/svg"
   xmlns:sodipodi="http://sodipodi.sourceforge.net/DTD/sodipodi-0.dtd"
   xmlns:inkscape="http://www.inkscape.org/namespaces/inkscape"
   width="210mm"
   height="297mm"
   viewBox="0 0 210 297"
   version="1.1"
   id="svg2864"
   sodipodi:docname="kereseres logo.svg"
   inkscape:version="1.0.2 (e86c870879, 2021-01-15, custom)"
   inkscape:export-filename="C:\Users\Tania\OneDrive\Escritorio\logo.png"
   inkscape:export-xdpi="96"
   inkscape:export-ydpi="96">
  <defs
     id="defs2858" />
  <sodipodi:namedview
     id="base"
     pagecolor="#ffffff"
     bordercolor="#666666"
     borderopacity="1.0"
     inkscape:pageopacity="0.0"
     inkscape:pageshadow="2"
     inkscape:zoom="1.16"
     inkscape:cx="400.57471"
     inkscape:cy="560"
     inkscape:document-units="mm"
     inkscape:current-layer="layer1"
     inkscape:document-rotation="0"
     showgrid="false"
     inkscape:window-width="1920"
     inkscape:window-height="1001"
     inkscape:window-x="-9"
     inkscape:window-y="-9"
     inkscape:window-maximized="1" />
  <metadata
     id="metadata2861">
    <rdf:RDF>
      <cc:Work
         rdf:about="">
        <dc:format>image/svg+xml</dc:format>
        <dc:type
           rdf:resource="http://purl.org/dc/dcmitype/StillImage" />
      </cc:Work>
    </rdf:RDF>
  </metadata>
  <g
     inkscape:label="Layer 1"
     inkscape:groupmode="layer"
     id="layer1">
    <path
       id="path2901"
       style="fill:#00ffff;stroke-width:0.307798"
       d="m 111.62987,156.96519 c 1.64295,2.39083 4.19502,6.46868 2.51975,6.58306 -10.31198,-1.79047 -21.227992,-0.4399 -25.304398,9.71258 -7.793707,0.24739 -5.243399,0.98219 -7.185091,0.22841 -2.304024,-8.19703 -18.705968,-12.32693 -29.176514,-12.00133 l -2.933155,2.1239 c 11.357218,-0.41028 29.480271,3.72264 32.005799,11.9941 2.09523,0.75291 -0.631204,0.0182 7.805208,-0.22841 4.428098,-10.15248 16.285561,-11.50306 27.487211,-9.71258 2.57013,-0.16155 -4.0566,-8.29562 -4.0566,-8.29562 0,0 -0.44365,-0.1697 -1.16221,-0.40411 z" />
    <text
       xml:space="preserve"
       style="font-style:normal;font-weight:normal;font-size:10.5833px;line-height:1.25;font-family:sans-serif;fill:#00ffff;fill-opacity:1;stroke:none;stroke-width:0.264583"
       x="84.969955"
       y="111.66589"
       id="text2868"><tspan
         sodipodi:role="line"
         id="tspan2866"
         x="84.969955"
         y="111.66589"
         style="font-style:normal;font-variant:normal;font-weight:normal;font-stretch:normal;font-family:Impact;-inkscape-font-specification:Impact;text-align:center;text-anchor:middle;fill:#00ffff;stroke-width:0.264583">Kereseres</tspan><tspan
         sodipodi:role="line"
         x="84.969955"
         y="125.8343"
         style="font-style:normal;font-variant:normal;font-weight:normal;font-stretch:normal;font-family:Impact;-inkscape-font-specification:Impact;text-align:center;text-anchor:middle;fill:#00ffff;stroke-width:0.264583"
         id="tspan2870">Games</tspan></text>
    <path
       id="path2903"
       style="fill:#00ffff;stroke-width:0.242021"
       d="m 105.03224,151.56013 c -6.645182,-1.84136 -11.717325,-4.09068 -16.666216,3.81317 l -2.617522,13.5036 c 5.547639,-12.38441 21.645958,-12.13086 21.710818,-9.46384 z"
       sodipodi:nodetypes="ccccc" />
    <path
       id="path2905"
       style="fill:#00ffff;stroke-width:0.282265"
       d="m 74.416219,149.1784 c -4.953396,-0.53602 -9.150361,0.98665 -9.150361,0.98665 l -9.061371,6.82542 c 15.650887,-0.35818 19.343227,4.39974 27.427348,12.4156 l 2.822742,-12.40136 c -3.189054,-5.47196 -7.879702,-7.37626 -12.038358,-7.82631 z"
       sodipodi:nodetypes="cccccc" />
  </g>
</svg>
